<?xml version="1.0" encoding="iso-8859-1"?>
<!-- Generator: Adobe Illustrator 18.0.0, SVG Export Plug-In . SVG Version: 6.00 Build 0)  -->
<!DOCTYPE svg PUBLIC "-//W3C//DTD SVG 1.1//EN" "http://www.w3.org/Graphics/SVG/1.1/DTD/svg11.dtd">
<svg version="1.1" id="Layer_1" xmlns="http://www.w3.org/2000/svg" xmlns:xlink="http://www.w3.org/1999/xlink" x="0px" y="0px"
	 viewBox="0 0 83.4 78.99" enable-background="new 0 0 83.4 78.99" xml:space="preserve">
<path fill="#848689" d="M20.748,44.522c0.154-5.599,2.1-10.281,5.832-14.055c3.732-3.77,8.435-5.694,14.113-5.774v18.429
	L22.847,53.387C21.448,50.746,20.748,47.788,20.748,44.522z M40.693,64.468c-3.499,0-6.688-0.796-9.564-2.391
	c-2.878-1.591-5.249-3.749-7.115-6.473l16.213-9.331l9.331,16.096C46.835,63.768,43.88,64.468,40.693,64.468z M60.522,44.522
	c0,3.499-0.798,6.69-2.391,9.564c-1.595,2.878-3.753,5.249-6.473,7.115l-9.564-16.679H60.522z M65.537,39.624H45.592V19.678
	c5.676,0.158,10.381,2.099,14.113,5.832S65.381,33.95,65.537,39.624z"/>
</svg>
