<?xml version="1.0" encoding="iso-8859-1"?>
<!-- Generator: Adobe Illustrator 18.0.0, SVG Export Plug-In . SVG Version: 6.00 Build 0)  -->
<!DOCTYPE svg PUBLIC "-//W3C//DTD SVG 1.1//EN" "http://www.w3.org/Graphics/SVG/1.1/DTD/svg11.dtd">
<svg version="1.1" id="Layer_1" xmlns="http://www.w3.org/2000/svg" xmlns:xlink="http://www.w3.org/1999/xlink" x="0px" y="0px"
	 viewBox="0 0 83.4 78.99" enable-background="new 0 0 83.4 78.99" xml:space="preserve">
<g>
	<path fill="#848689" d="M64.698,58.467c-5.478-2.884-9.54-4.363-13.173-4.797c-0.032-0.004-0.065-0.006-0.098-0.006h-0.377
		c-0.265,0-0.513,0.127-0.669,0.341l-5.171,7.11h-5.78l-5.172-7.11c-0.156-0.214-0.405-0.341-0.669-0.341h-0.377
		c-0.033,0-0.065,0.002-0.099,0.006c-3.632,0.434-7.695,1.913-13.172,4.797c-1.517,0.798-2.46,2.36-2.46,4.077v3.539
		c0,0.458,0.371,0.828,0.828,0.828h19.87h0h0.001h0.31c0,0,0.001,0,0.001,0l7.619-0.007c0.013,0.001,0.025,0.007,0.039,0.007H66.33
		c0.457,0,0.828-0.37,0.828-0.828v-3.539C67.158,60.826,66.215,59.265,64.698,58.467z"/>
	<path fill="#848689" d="M57.901,34.778h-0.678v-0.984c0-6.546-4.298-12.05-10.763-13.885v-0.175c0-1.377-1.12-2.498-2.498-2.498
		h-3.283c-1.378,0-2.498,1.121-2.498,2.498v0.175c-6.465,1.836-10.763,7.34-10.763,13.885v0.984h-0.677c-0.828,0-1.5,0.671-1.5,1.5
		s0.672,1.5,1.5,1.5h2.333v1.812c0,7.426,5.666,15.731,13.247,15.731s13.247-8.305,13.247-15.731v-1.812h2.334
		c0.828,0,1.5-0.671,1.5-1.5S58.729,34.778,57.901,34.778z M42.946,18.811c0-0.552,0.447-1,1-1s1,0.448,1,1v10.5
		c0,0.552-0.447,1-1,1s-1-0.448-1-1V18.811z M39.696,18.811c0-0.552,0.447-1,1-1s1,0.448,1,1v10.5c0,0.552-0.447,1-1,1s-1-0.448-1-1
		V18.811z M55.567,35.061H29.074c-0.271,0-0.514-0.11-0.694-0.284c-0.188-0.182-0.306-0.434-0.306-0.716c0-0.552,0.447-1,1-1h26.493
		c0.553,0,1,0.448,1,1c0,0.282-0.119,0.534-0.306,0.716C56.08,34.952,55.837,35.061,55.567,35.061z"/>
</g>
</svg>
