<?xml version="1.0" encoding="iso-8859-1"?>
<!-- Generator: Adobe Illustrator 18.0.0, SVG Export Plug-In . SVG Version: 6.00 Build 0)  -->
<!DOCTYPE svg PUBLIC "-//W3C//DTD SVG 1.1//EN" "http://www.w3.org/Graphics/SVG/1.1/DTD/svg11.dtd">
<svg version="1.1" id="Layer_1" xmlns="http://www.w3.org/2000/svg" xmlns:xlink="http://www.w3.org/1999/xlink" x="0px" y="0px"
	 viewBox="0 0 191 191" style="enable-background:new 0 0 191 191;" xml:space="preserve">
<g>
	<polygon style="fill:#BCA201;" points="81.755,83.253 51.719,83.253 51.719,83.253 51.719,113.289 81.755,113.289 81.755,83.253 	
		"/>
	<rect x="18.683" y="83.253" style="fill:#E6C400;" width="30.036" height="30.036"/>
	<rect x="84.755" y="83.253" style="fill:#A99200;" width="30.036" height="30.036"/>
	<rect x="117.791" y="83.253" style="fill:#E6C400;" width="30.036" height="30.036"/>
	<polygon style="fill:#857300;" points="150.827,83.253 150.827,113.289 180.863,113.289 180.863,83.253 150.827,83.253 	"/>
	<rect x="117.791" y="116.289" style="fill:#A99200;" width="30.036" height="30.036"/>
	<rect x="84.755" y="116.289" style="fill:#E6C400;" width="30.036" height="30.036"/>
	<rect x="51.719" y="149.325" style="fill:#C7AB01;" width="30.036" height="30.037"/>
	<rect x="18.683" y="116.289" style="fill:#D5B601;" width="30.036" height="30.036"/>
	<polygon style="fill:#C1A501;" points="147.827,80.253 147.827,80.253 147.827,50.217 117.791,50.217 117.791,80.253 
		117.791,80.253 	"/>
	<polygon style="fill:#CCAF01;" points="84.755,80.253 84.755,80.253 114.791,80.253 114.791,80.253 114.791,50.217 84.755,50.217 	
		"/>
	<rect x="51.719" y="17.181" style="fill:#E6C400;" width="30.036" height="30.036"/>
	<polygon style="fill:#E6C400;" points="48.719,80.253 48.719,50.217 18.683,50.217 18.683,80.253 48.719,80.253 	"/>
	<rect x="51.719" y="116.289" style="fill:#E6C400;" width="30.036" height="30.036"/>
	<rect x="51.719" y="50.217" style="fill:#E6C400;" width="30.036" height="30.036"/>
</g>
</svg>
