<?xml version="1.0" encoding="iso-8859-1"?>
<!-- Generator: Adobe Illustrator 18.0.0, SVG Export Plug-In . SVG Version: 6.00 Build 0)  -->
<!DOCTYPE svg PUBLIC "-//W3C//DTD SVG 1.1//EN" "http://www.w3.org/Graphics/SVG/1.1/DTD/svg11.dtd">
<svg version="1.1" id="Layer_1" xmlns="http://www.w3.org/2000/svg" xmlns:xlink="http://www.w3.org/1999/xlink" x="0px" y="0px"
	 viewBox="0 0 191 191" style="enable-background:new 0 0 191 191;" xml:space="preserve">
<g>
	<rect x="125.117" y="123.502" style="fill:#E6C400;" width="0" height="0"/>
	<polygon style="fill:#E6C400;" points="147.538,82.24 148.28,82.179 148.057,81.412 147.99,81.324 147.704,80.813 147.205,81.077 	
		"/>
	<polygon style="fill:#E6C400;" points="160.966,109.573 161.09,110.001 161.457,110.08 161.822,110.159 160.842,109.144 	"/>
	<polygon style="fill:#E6C400;" points="78.404,75.052 78.404,75.052 78.404,75.052 	"/>
	<polygon style="fill:#E6C400;" points="162.439,109.626 161.848,110.165 163.419,110.503 	"/>
	<polygon style="fill:#E6C400;" points="146.527,90.713 146.527,90.713 146.527,90.713 	"/>
	<polygon style="fill:#E6C400;" points="82.345,78.75 82.345,78.75 82.345,78.75 	"/>
	<polygon style="fill:#E6C400;" points="90.326,34.478 90.914,34.004 90.908,33.961 90.23,34.015 89.652,34.585 89.804,34.875 
		90.011,34.977 	"/>
	<polygon style="fill:#E6C400;" points="138.04,65.411 137.256,66.508 138.844,67.629 140.302,67.574 140.351,66.099 142.512,65.86 
		141.474,65.171 	"/>
	<polygon style="fill:#E6C400;" points="137.589,62.389 137.231,62.132 137.006,60.944 132.81,61.317 134.77,62.667 	"/>
	<path style="fill:#E6C400;" d="M129.398,63.763l-2.71-1.878l-1.621,1.842c0.114,0.187,0.21,0.359,0.26,0.484
		c0.177,0.277,1.339,1.035,1.898,1.398c0.41,0.267,0.751,0.497,1.029,0.707c0.067,0.05,0.151,0.107,0.208,0.154l0.615,0.519
		l-3.632,6.889l-1.583-1.658l-1.841,0.117c-1.736,2.914-3.579,5.806-5.482,8.605l-0.373,1.203c0.269,0.019,0.538,0.036,0.806,0.059
		c1.331,0.042,2.668,0.067,4.003,0.074l1.396,0.013l0.357-0.001l1.758,1.203c1.061,0.107,2.135,0.158,3.213,0.181
		c0.735-0.014,1.493-0.045,2.288-0.092l0.338-0.02c0.967-0.057,1.933-0.124,2.9-0.184l-0.279-3.97l-0.553-1.535l2.774-3.303
		c-0.087-0.165-0.175-0.329-0.26-0.484c-0.257-0.452-0.543-0.88-0.861-1.282c-0.131-0.133-0.262-0.265-0.392-0.399
		c-0.632-0.652-1.186-1.205-1.836-1.682c-0.358-0.244-0.721-0.482-1.113-0.682l-0.978-0.474l0.012-0.019l0,0l2.022-3.293
		l1.732-0.089c-1.238-0.861-2.472-1.726-3.703-2.596L129.398,63.763z"/>
	<path style="fill:#E6C400;" d="M150.11,90.136l-0.018,0.001l0.518,5.513l-0.017,0.002l0.326,3.394l0.01-0.001l0.366,3.595
		l4.14-5.34l0.641,2.748c0.313,0.034,0.626,0.03,0.937,0.005l1.143-0.714l1.015-1.272l3.123,0.402
		c0.577-0.208,1.17-0.359,1.766-0.451l0.198-0.031l0.235,0.059c0.028-0.03,0.056-0.061,0.083-0.092l0.021-0.13
		c-0.127-1.112-0.326-2.229-0.591-3.321l-0.357-0.512l-1.494-1.366c-0.448-0.257-0.877-0.554-1.275-0.885l-0.289-0.24l-0.295-1.823
		c-0.21-0.604-0.358-1.254-0.433-1.904l-0.059-0.092l-0.516-0.264l-0.18-0.386l-0.227-0.113l-0.146-0.207
		c-0.139-0.197-0.306-0.355-0.511-0.485l-0.213-0.135l-0.258-0.457l-0.446-0.246l-1.365-1.504l-0.058-0.284
		c-0.433-0.346-0.892-0.66-1.37-0.938l-0.073,0.015l-0.276-0.111c-0.414-0.166-0.864-0.271-1.322-0.312l-0.008,0.069l-2.107,1.108
		l0.147,0.505l-1.338,0.133L150.11,90.136z"/>
	<path style="fill:#E6C400;" d="M143.105,68.917l-0.785,1.52l-1.386-0.886l-2.69,0.102l-2.288-1.615l-3.042,0.157l-0.362,0.59
		c1.013,0.653,1.759,1.422,2.538,2.226c0.208,0.215,0.424,0.438,0.653,0.667c0.276,0.276,0.785,1.141,1.511,2.571l0.299,0.589
		l-2.889,3.439l0.267,0.851l0.29,4.122c2.311-0.146,4.622-0.288,6.932-0.44c0.36-0.023,0.719-0.047,1.079-0.07l1.378-0.091
		l-0.002-0.005l0.949-0.06l-0.721-2.516l1.143-0.606l-0.562-1.11l0.513-0.234l-0.104-0.201l0.041-0.017l-0.04-0.048l-0.172-1.381
		l3.198-0.798l-0.185-1.924l-0.284,0.03l-1.986-2.336l-0.524,0.049l-1.898-1.323v-1.322L143.105,68.917z"/>
	<path style="fill:#E6C400;" d="M147.786,99.37l-0.445-4.787l0.007,0c-0.086-0.972-0.173-1.944-0.263-2.917l-0.465,0.043
		l-0.093-0.996l0,0l0,0l-0.006-0.066l-0.373-0.008l0.022,0.251l0.198,0.179l-0.166,0.183l0.009,0.098l-0.105,0.01l-0.855,0.946
		l-13.328,1.158c0.065,1.883,0.095,3.711,0.108,5.436l0.007,0v1.046c0.004,0.172,0.017,0.34,0.022,0.512l0.26,5.769
		c0.093,1.449,0.221,2.873,0.353,4.292l0.115,1.229c1.684-0.537,3.194-1.115,4.634-2.187l1.448-1.077l-0.002-0.105l0.392-0.31
		c0.791-0.624,1.583-1.245,2.378-1.863l0.263-0.205l0.139-0.002l3.747-0.064l0.08,1.047l0.04-0.043l0.121-2.162l2.263-0.098
		l-0.512-5.308L147.786,99.37z M139.815,103.791l-0.149-4.409l1.999-0.067l0.149,4.409L139.815,103.791z"/>
	<path style="fill:#E6C400;" d="M142.664,84.783c-3.752,0.247-7.505,0.495-11.259,0.719c0.013,0.123,0.021,0.248,0.033,0.371
		c0.06,0.605,0.113,1.209,0.162,1.813c0.053,0.643,0.098,1.285,0.138,1.929c0.019,0.302,0.037,0.603,0.054,0.904
		c0.017,0.315,0.042,0.63,0.056,0.944l12.448-1.082l0.853-0.943l0.885-0.08l0.081,0.896v-0.036c0-1.917-0.281-3.799-0.834-5.608
		L142.664,84.783z"/>
	
		<rect x="138.534" y="100.552" transform="matrix(-0.0339 -0.9994 0.9994 -0.0339 44.012 245.6503)" style="fill:#E6C400;" width="4.412" height="2"/>
	<path style="fill:#E6C400;" d="M130.04,100.021l0.521-0.029l-0.001-0.024l-0.52,0.002c-0.021-4.315-0.115-9.353-0.633-14.35
		c-0.778,0.044-1.532,0.079-2.296,0.079c-1.156,0-2.158-0.08-3.151-0.252l-0.215-0.037l-1.638-1.121l-3.756-0.034l-1.332,7.28
		l-0.366,0.476l0.097,1.388c0.528,1.256,0.903,2.582,1.129,3.941c0.009,0.056,0.022,0.111,0.031,0.167
		c0.011,0.072,0.017,0.145,0.027,0.217c0.195,1.349,0.244,2.728,0.133,4.107l0.017,0.259c0.14,2.165,0.297,4.329,0.45,6.493
		c0.154-0.039,0.309-0.069,0.464-0.106c0.24-0.057,0.48-0.112,0.721-0.164c0.396-0.086,0.791-0.167,1.188-0.243
		c0.234-0.045,0.466-0.09,0.7-0.132c0.432-0.077,0.863-0.149,1.295-0.218c0.19-0.03,0.381-0.063,0.571-0.093
		c0.6-0.093,1.197-0.181,1.789-0.268c0.888-0.13,1.792-0.266,2.694-0.414c0.272-0.045,0.542-0.101,0.814-0.148
		c0.523-0.092,1.042-0.196,1.56-0.304L130.04,100.021z"/>
	<path style="fill:#E6C400;" d="M108.037,47.496l-0.108,0.249l-0.714-0.633c-0.046-0.025-0.093-0.047-0.138-0.072l-0.483-0.27
		l-0.008-0.15c-0.182-0.126-0.41-0.281-0.642-0.435c-0.502-0.235-0.987-0.289-1.47-0.142c-0.185,0.138-0.416,0.313-0.668,0.502
		l1.054,0.729l-1.646,0.633c-1.258,0.939-2.432,1.661-3.572,2.209c-0.191,0.25-0.295,0.48-0.292,0.669
		c0.007,0.422,0.632,1.082,2.325,1.694h0.82l-0.008,0.286l0.036,0.012l-0.096,2.22l-0.915,0.041
		c-0.542,0.024-1.084,0.015-1.624-0.025c-0.172-0.013-0.341-0.048-0.512-0.067c-0.351-0.039-0.703-0.071-1.05-0.137
		c-0.236,0.313-0.512,0.671-0.649,0.824c-0.708,0.792-1.572,1.412-2.408,2.011c-0.152,0.109-0.294,0.216-0.441,0.323
		c-0.136,0.115-0.265,0.238-0.402,0.352c0.356,0.212,0.707,0.435,1.061,0.653c0.39,0.24,0.782,0.474,1.169,0.719
		c0.742,0.47,1.477,0.95,2.201,1.439l0.917,0.618L97.5,64.488c1.146,0.908,1.745,1.912,1.782,2.993
		c0.006,0.18-0.004,0.358-0.028,0.537c-0.009,0.064-0.028,0.128-0.041,0.192c-0.022,0.114-0.043,0.227-0.077,0.341
		c-0.023,0.075-0.058,0.151-0.086,0.226c-0.039,0.101-0.075,0.203-0.123,0.304c-0.038,0.079-0.087,0.158-0.132,0.238
		c-0.054,0.096-0.107,0.193-0.17,0.29c-0.054,0.081-0.116,0.162-0.177,0.243c-0.07,0.095-0.14,0.189-0.219,0.284
		c-0.069,0.082-0.145,0.163-0.221,0.245c-0.086,0.094-0.173,0.188-0.269,0.281c-0.083,0.081-0.173,0.163-0.263,0.245
		c-0.104,0.094-0.21,0.189-0.323,0.283c-0.097,0.081-0.199,0.162-0.303,0.243c-0.068,0.054-0.129,0.107-0.2,0.161l-0.03,0.151
		l3.205,2.595l0.012-0.008l0.54,0.454l1.095,0.887l-0.058,0.036c0.215,0.199,0.441,0.415,0.665,0.627
		c2.546,2.104,5.192,4.117,8.052,5.609l1.784,0.074c0.73-0.009,1.459,0.002,2.19,0.024l0.695-2.099
		c2.01-2.95,3.95-6.004,5.768-9.077l0.27-0.455l3.827-0.243l0.306,0.321l1.553-2.945c-0.126-0.084-0.259-0.17-0.391-0.256
		c-1.416-0.923-2.367-1.584-2.665-2.334c-0.039-0.079-0.267-0.438-0.48-0.747l-0.442-0.642l2.199-2.498l-0.343-0.276l-0.21-0.776
		l0.264-0.452c0.405-0.559,0.837-1.116,1.273-1.646l0.18-0.357c0.026-0.063,0.053-0.126,0.079-0.19l-0.322-0.099l-0.419-0.462
		c-0.26-0.083-0.525-0.149-0.791-0.198c-0.327,0.061-0.65,0.156-0.962,0.284l-0.297,0.122l-0.421-0.101l-0.167,0.109l-0.071-0.117
		l-0.096,0.063l-0.319-0.41c-0.088-0.103-0.17-0.211-0.248-0.323l-0.004-0.005c-0.046-0.06-0.089-0.122-0.129-0.186l-0.124-0.178
		c-0.564-0.406-1.061-0.896-1.481-1.458l-0.201-0.269l0.001-0.227c-0.593-0.691-1.252-1.292-2.009-1.832l-0.812-0.58l0.07-0.099
		c-1.885-1.5-4.129-2.556-6.521-3.073l-0.005,0.018l-0.324-0.085c-0.06-0.012-0.12-0.023-0.18-0.034l-1.098-0.201l0.035-0.117
		c-0.203-0.07-0.403-0.146-0.6-0.23L108.037,47.496z"/>
	<path style="fill:#E6C400;" d="M127.114,59.746l0.383,0.266c-0.081-0.145-0.165-0.287-0.252-0.428
		C127.201,59.638,127.157,59.692,127.114,59.746z"/>
	<path style="fill:#E6C400;" d="M166.766,107.677c0.102-0.031,0.202-0.069,0.301-0.112l0.515-0.481
		c-0.167-0.188-0.331-0.381-0.487-0.575l-1.071-0.265l-0.207-0.232c-0.303-0.342-0.643-0.646-1.013-0.906l-0.197-0.005l-0.808,0.59
		l-0.425-0.484l-0.197,0.405l-0.499-0.522c-0.215,0.079-0.438,0.136-0.669,0.17l-0.424,0.062l-1.116-0.875l-0.023-0.408
		c-0.013-0.021-0.026-0.04-0.04-0.06l-0.17-0.236l-0.025-0.44c-0.184-0.296-0.323-0.615-0.417-0.951l-1.114,0.058l-1.091-0.396
		c-0.85,0.118-1.713,0.08-2.559-0.114l-0.534-0.122l-1.84,2.374l3.28,2.505l0.064-0.052l0.601,0.561l-0.012,0.024l0.096,0.095
		l0.715,0.811l0.887,0.109l0.89,2.433c0.006,0.004,0.012,0.007,0.019,0.011l-0.68-2.347l2.394-1.966l0.758,0.785l-0.5-1.222
		l3.278-0.193l1.461,1.481L166.766,107.677z"/>
	<path style="fill:#E6C400;" d="M163.74,101.629l-0.041,0.388c0.04,0.137,0.09,0.272,0.148,0.403l0.493-0.068l0.521,0.22
		c0.438,0.007,0.878,0.02,1.317,0.041l-0.065-0.79c-0.052-0.117-0.107-0.232-0.168-0.346l-0.224-0.032l-0.2,0.111l-0.938-0.152
		l-0.797,0.159L163.74,101.629z"/>
	<path style="fill:#E6C400;" d="M156.483,113.567l-0.306-0.168l-0.323-1.006c-0.218-1.138-0.668-2.176-1.339-3.087l-3.775-2.95
		l-0.228,0.228l-2.587,0.113l-0.06,1.076l-1.77,1.899c0.042,0.464,0.085,0.928,0.13,1.391c0.394,3.822,0.814,7.648,1.25,11.471
		l-1.987,0.227c0-0.006-0.001-0.012-0.002-0.018l-0.153-1.338c-0.38-3.323-0.774-6.761-1.099-10.151l-0.231-2.271l0.021-0.023
		c-0.029-0.331-0.057-0.663-0.084-0.994l-1.336,0.023c-0.571,0.445-1.142,0.891-1.71,1.339l0.029,1.148l-1.421,2.161l-2.554,0.639
		l0.027-1.069c-1.536,0.825-3.121,1.31-4.773,1.815l-1.174,0.359l-0.549-5.858c-1.649,0.333-3.309,0.577-4.924,0.814
		c-2.278,0.334-4.625,0.679-6.877,1.274c0.034,0.46,0.061,0.921,0.096,1.382l0.001,0.008l0.737,2.063l-0.879,3.138l-7.717,1.642
		l0,0.001l-6.013,1.278l0.042,2.62l-1.186,0.637l2.627,2.586l-2.596,2.619l4.082,3.585l1.697,2.574
		c3.359-2.281,6.906-2.837,10.042-1.553c1.825-0.195,3.613-0.05,5.254,0.436c-0.006-0.051-0.012-0.101-0.018-0.15l-0.026-0.226
		l0.252-0.74l0.647-0.458c0.219-0.092,0.449-0.139,0.685-0.139l0.313,0.03c0.443,0.102,0.864,0.277,1.25,0.522l0.105,0.077
		c0.23,0.192,0.442,0.408,0.629,0.643l0.127,0.158l0.152,0.544l-0.122,0.609l-0.206,0.469l-0.089,0.074l0.702,0.225l0.854,0.039
		l0.311-0.117l0.581-0.671l0.189-0.091c0.545-0.259,1.114-0.472,1.697-0.636c0.491-0.62,1.018-1.217,1.569-1.775l0.255-0.259
		l0.362-0.034c1.841-0.177,3.712-0.443,5.562-0.794l0.241-0.046l0.234,0.071c0.209,0.063,0.425,0.095,0.642,0.095
		c0.16,0,0.313-0.018,0.46-0.052c0.396-0.449,0.791-0.9,1.184-1.354l0.219-0.188c0.433-0.274,0.863-0.567,1.281-0.871
		c0.034-0.333,0.055-0.669,0.062-1.002l0.005-0.22l0.412-0.844l0.288-0.152c2.917-1.543,5.37-3.123,7.681-4.95
		c-0.467-1.065-0.727-2.216-0.753-3.35l-0.005-0.199l0.318-0.684c0.484-0.593,1-1.176,1.533-1.734l0.224-0.176l0.813-0.469
		C155.824,114.398,156.158,113.985,156.483,113.567z M123.755,124.675l-0.242-1.984l1.484-0.181l0.121,0.992h0v0h0l0.121,0.992
		L123.755,124.675z"/>
	<polygon style="fill:#E6C400;" points="125.117,123.502 124.996,122.51 123.512,122.69 123.755,124.675 125.238,124.494 
		125.117,123.502 	"/>
	<path style="fill:#E6C400;" d="M116.069,101.888l-0.005-0.075l0.006-0.074c0.226-2.663-0.198-5.328-1.225-7.706l-0.068-0.157
		l-0.173-2.481l0.533-0.695l1.199-6.553c-2.886-0.222-5.797-0.189-8.647,0.097c-0.208,0.162-0.401,0.348-0.595,0.532
		c-0.074,0.07-0.154,0.13-0.226,0.203c-0.265,0.265-0.523,0.546-0.789,0.834c-0.211,0.229-0.428,0.46-0.649,0.688
		c-0.071,0.073-0.144,0.144-0.217,0.216c-0.182,0.181-0.372,0.355-0.568,0.526c-0.055,0.048-0.103,0.101-0.16,0.148l0.898,1.251
		l0.511,0.711l0.545,7.444l0.413,0.505l0.997,5.647c0.516,2.96,1.092,5.93,1.673,8.872l1.002,5.06l6.506-1.385l0.381-1.359
		l-0.623-1.85C116.528,108.823,116.293,105.356,116.069,101.888z"/>
	<path style="fill:#E6C400;" d="M106.771,108.214c-4.617,0.834-9.155,1.682-13.543,2.531c-0.972,0.241-1.937,0.495-2.884,0.784
		l0.155,0.37l1.408,3.365l3.901,3.537l0.855-0.955l4.064,4.741l0.3-0.113c0.648-0.261,1.284-0.555,1.897-0.895l-0.048-3.068
		l5.694-1.212L106.771,108.214z"/>
	<path style="fill:#E6C400;" d="M86.212,95.045l5.476,13.96c4.747-0.924,9.688-1.85,14.714-2.758l-1.427-8.083l-0.482-0.59
		l-0.55-7.512l-1.126-1.567c-0.202,0.12-0.418,0.235-0.624,0.354c-0.265,0.153-0.529,0.304-0.801,0.455
		c-0.399,0.221-0.812,0.433-1.227,0.646c-0.274,0.141-0.543,0.282-0.825,0.418c-0.462,0.222-0.945,0.427-1.429,0.631
		c-0.251,0.106-0.491,0.219-0.748,0.32c-0.751,0.293-1.526,0.564-2.336,0.796l-0.283,0.082l-7.463-2.244l0,0l-0.501-0.151
		l-1.846,1.474L86.212,95.045L86.212,95.045z"/>
	<path style="fill:#E6C400;" d="M100.123,124.955l-3.492-4.073l-0.675,0.754l-5.722-5.188l-2.558-6.115l2.082-0.77l-4.651-11.858
		c-0.146,0.065-0.293,0.128-0.438,0.195c-0.271,0.123-0.544,0.256-0.816,0.384c-3.227,1.543-6.325,3.386-9.34,5.237l3.727,10.216h0
		l0.12,0.329l0.566,1.552l0,0l0.979,2.687l4.603,4.326l-2.568,4.278l3.154,3.332c0.939-0.985,1.881-1.968,2.817-2.958l0.191-0.799
		l0.175-0.735h0l0-0.001l0.87,0.088c0.03,0.003,0.06,0.004,0.091,0.007c1.504,0.147,3.025,0.202,4.541,0.173
		c0.708-0.014,1.416-0.039,2.119-0.091l0.444-0.033h0h0l3.75,3.586l3.46-3.491l-1.708-1.681L100.123,124.955z"/>
	<path style="fill:#E6C400;" d="M81.866,53.053l1.176,0.563l-5.359,3.841l2.481,3.749l0.131-0.093l0.072-0.051l0,0l0.037-0.026
		l0.599,0.483c0.624,0.449,1.217,0.936,1.792,1.443l3.723-4.374l3.368-2.334l1.14,1.644l-3.259,2.258l-3.523,4.192l0.027,0.031
		c0.451,0.474,0.889,0.961,1.299,1.473c0.755,0.187,1.517,0.407,2.286,0.652c0.056,0.018,0.112,0.033,0.168,0.052
		c0.747,0.242,1.503,0.516,2.268,0.813c0.086,0.034,0.171,0.065,0.258,0.099c0.748,0.297,1.506,0.624,2.275,0.976
		c0.107,0.049,0.213,0.096,0.321,0.146c0.761,0.354,1.534,0.739,2.318,1.148c0.066,0.034,0.128,0.061,0.194,0.096
		c1.076-0.85,1.648-1.649,1.626-2.281c-0.028-0.787-0.978-1.526-1.77-2.008l-0.99-0.602l2.296-2.764
		c-1.521-0.998-3.08-1.957-4.648-2.859l-1.288-0.741l1.171-0.914c1.831-1.429,3.556-2.994,5.129-4.653l0.398-0.419l0.562,0.135
		c0.019,0.004,0.037,0.009,0.055,0.013c-0.552-0.571-0.835-1.212-0.847-1.92c-0.024-1.435,1.178-2.841,3.357-3.983l-0.09-0.062
		l0.723-0.843c0.968-1.128,2.022-1.778,3.139-1.936c-0.04-0.062-0.079-0.125-0.116-0.189l-0.463-0.344l-0.2-0.01l-0.041-0.169
		l0.044-0.993c0.005-1.318-0.705-2.208-2.113-2.646l-0.767-0.239l0.102-1.198l-0.097-0.29c-0.265-0.245-0.577-0.435-0.918-0.558
		l-0.133,0.014l-0.484,0.214l-0.202,0.008l-0.058,0.279l-2.035-0.235l-0.03-1.631c-0.256-0.566-0.657-1.048-1.17-1.406
		c-0.436-0.144-0.884-0.253-1.337-0.326c-0.16,0.066-0.316,0.142-0.466,0.227c-0.036,0.056-0.064,0.116-0.084,0.182l-0.299,0.963
		l-1.109-0.357l-0.665,0.537l-1.099,1.741l-0.878-0.434l-0.177,0.425l-0.198-0.085l0.191-0.431l-0.299-0.148l-0.204,0.436
		l-0.305-0.147l0.215-0.434l-0.414-0.205l-0.221,0.426l-0.188-0.099l0.249-0.469l-0.099-0.092l-0.272,0.495l-0.18-0.099l0.301-0.537
		l-0.085-0.08l-0.321,0.557l0.3-0.59l-0.094-0.186l-0.395,0.667l-0.127-0.076l0.45-0.736l-0.042-0.084l-0.483,0.774l-0.116-0.073
		l0.535-0.828l-0.066-0.131L87.22,36.26l-0.64-0.434l0.836-1.233l-0.206-0.409l0.648-0.639l-0.56-1.318l0.105-0.283l-0.161-0.227
		l-0.109-0.997l1.066-1.305l0.427,0.035l0.058-0.038l-0.006-0.659c-0.467-0.819-1.056-1.546-1.755-2.168l-0.185-0.056l-0.17,0.02
		l-0.158,0.141l-0.005,0.371L86.16,27.34c-0.345,0.39-0.638,0.822-0.873,1.286l-0.042,0.872l-0.534,0.718
		c-0.931,0.784-1.833,1.619-2.683,2.482l-0.137,0.14l-0.18,0.077c-0.389,0.167-0.796,0.288-1.215,0.359
		c-1.284,0.797-2.637,1.5-4.038,2.097l4.673,7.895l-4.129,2.664L81.866,53.053z"/>
	<path style="fill:#E6C400;" d="M78.92,136.437c0.081,0,0.162,0.005,0.243,0.015l1.953-2.042l-0.844-0.789l-0.646,0.75l-0.375,0.436
		l0,0l0,0l-0.504-0.189l-0.738,2.05C78.346,136.486,78.667,136.437,78.92,136.437C78.919,136.437,78.919,136.437,78.92,136.437z"/>
	<path style="fill:#E6C400;" d="M108.03,136.047l-1.752-2.658l-3.899-3.378l-2.249,2.269l-4.529-4.331
		c-1.924,0.122-3.858,0.106-5.782-0.045l-0.087,0.363l-0.184,0.194c-1.022,1.082-2.054,2.154-3.08,3.232l0.008,0.009l-3.799,3.968
		c-0.184,0.192-0.366,0.385-0.55,0.577l-2.403,2.511l-0.706-0.282c-0.001-0.001-0.002-0.002-0.004-0.002
		c0-0.001-0.001-0.001-0.001-0.001c0,0.001,0,0-0.003-0.002c-0.041-0.02-0.068-0.027-0.082-0.031
		c-0.004,0.009-0.039,0.036-0.089,0.097h0l-1.157-0.964l-0.357,0.992l-4.757-4.679l-4.122,3.351
		c-2.097,1.191-3.648,2.925-5.291,4.76c-0.312,0.348-0.628,0.698-0.947,1.048c-0.045,0.049-0.089,0.098-0.135,0.147
		c-0.319,0.346-0.645,0.688-0.981,1.026c-0.055,0.056-0.111,0.11-0.167,0.165c-0.348,0.344-0.703,0.684-1.078,1.011
		c-0.007,0.006-0.015,0.012-0.022,0.018c-0.358,0.312-0.737,0.61-1.127,0.899c-0.048,0.036-0.09,0.075-0.139,0.111
		c0.774,0.705,1.584,1.391,2.376,2.06c2.694,2.278,5.478,4.633,7.098,7.921l1.549,0.411l5.115-5.543l8.254,7.851l7.884-9.053
		l1.167,0.815l0,0.001h0l-0.148,0.211l0.097,0.084l0.646-0.709l3.042,2.771c0.551-0.802,1.189-1.545,1.887-2.194l0.08-0.152
		l0.082-0.435l0.119-0.174c0.87-1.269,1.718-2.578,2.57-3.893C102.695,142.82,105.085,139.134,108.03,136.047z M82.863,143.978
		l-0.244-0.658c-0.098-0.265-0.203-0.466-0.243-0.519l1.405-1.419c0.406,0.368,0.662,0.848,0.763,1.424l0.204,1.172H82.863z
		 M84.555,145.631l-0.091-0.496l1.968-0.359l0.091,0.496L84.555,145.631z"/>
	<path style="fill:#E6C400;" d="M83.087,162.008l-8.297-7.892l-3.549,3.848c4.147,3.664,8.133,7.336,11.857,10.922l0.129,0.125
		l0.351,0.727c0.116,0.088,0.232,0.175,0.348,0.261c2.986-3.91,5.804-8.033,8.535-12.028c0.69-1.011,1.381-2.021,2.076-3.03
		l-2.951-2.688L83.087,162.008z"/>
	
		<rect x="85.241" y="144.203" transform="matrix(-0.1801 -0.9837 0.9837 -0.1801 -41.9405 255.4468)" style="fill:#E6C400;" width="0.504" height="2"/>
	<path style="fill:#E6C400;" d="M84.545,142.806c-0.101-0.576-0.357-1.056-0.763-1.424l-1.405,1.419
		c0.04,0.053,0.145,0.254,0.243,0.519l0.244,0.658h1.885L84.545,142.806z"/>
	<path style="fill:#E6C400;" d="M72.194,66.846l6.337-4.484l-3.579-5.407l4.178-2.994l-1.43-0.685l1.443-0.665l-4.949-7.248
		l4.237-2.734l-3.776-6.38c-2.59,1.513-5.251,2.927-7.833,4.3c-2.64,1.403-5.366,2.852-7.976,4.387
		c-1.685,4.837-3.641,9.697-5.533,14.4c-1.282,3.187-2.606,6.476-3.836,9.735l6.933,9.431
		C61.521,74.608,66.807,70.584,72.194,66.846z"/>
	<path style="fill:#E6C400;" d="M40.039,93.636l5.256,4.731l1.844,1.66c2.605-2.666,5.622-4.803,8.547-6.876
		c0.726-0.514,1.454-1.03,2.178-1.555l0.907-0.658l0.542,0.94c0.824,1.339,1.725,2.598,2.678,3.77
		c0.053,0.062,0.107,0.122,0.16,0.183l3.489-3.647l0.298-0.065c2.698-0.589,5.379-1.363,7.969-2.301l0.682,1.88
		c-2.577,0.934-5.242,1.71-7.925,2.31l-3.139,3.281c0.209,0.204,0.408,0.417,0.624,0.614l6.158,5.854
		c0.584-0.357,1.167-0.717,1.75-1.076c3.925-2.42,7.975-4.917,12.315-6.85l-2.04-5.199l1.918-1.531l-4.741-1.425l-3.913,3.119
		l-3.299-5.292l-2.83-1.457l-9.39-0.809l-4.167-2.034l-1.096-1.492h0l-6.191-8.422c-0.855,2.219-1.716,4.435-2.577,6.651
		C44.054,83.076,41.994,88.378,40.039,93.636z"/>
	<path style="fill:#E6C400;" d="M40.067,129.34c4.01,3.775,8.148,7.567,12.152,11.237c1.618,1.481,3.234,2.964,4.847,4.447
		c1.768-1.2,3.147-2.741,4.598-4.363c0.622-0.695,1.253-1.4,1.921-2.08c1.114-1.133,2.333-2.198,3.797-3.042l5.309-4.339
		l3.811,3.748l1.051-2.916l1.094,0.41l1.469-1.707l2.383,2.229l1.217-1.271l-4.272-4.514l2.519-4.196l-3.774-3.549l-1.088-2.984
		c-0.049,0.027-0.097,0.056-0.146,0.084c-0.248,0.14-0.49,0.29-0.725,0.449c-0.083,0.056-0.166,0.112-0.248,0.17
		c-0.291,0.209-0.575,0.427-0.846,0.666l-0.704,0.621l-1.703-1.702l-11.186,6.283l0,0l-0.051,0.028l-0.531-0.452h0l-0.692-0.59
		l-3.344,1.809l-6.016-5.395l-0.487-3.627l0.644-0.133l-0.074-0.041c-0.002-0.001-0.005-0.002-0.007-0.004l-0.002-0.001
		c-0.214-0.118-0.435-0.207-0.653-0.306c-1.34-0.34-2.753-0.505-4.353-0.505c-1.534,0-3.135,0.14-4.831,0.287
		c-0.765,0.066-1.552,0.135-2.367,0.194c0.473,2.671,0.6,5.399,0.723,8.047C39.608,124.654,39.719,127.05,40.067,129.34z"/>
	<path style="fill:#E6C400;" d="M38.759,107.627c0.057,1.543,0.131,3.08,0.223,4.616c0.84-0.092,1.667-0.213,2.477-0.333
		c1.612-0.237,3.136-0.461,4.702-0.461c2.03,0,3.758,0.387,5.4,1.213l1.021-0.323l0.283,0.893c0.122,0.037,0.246,0.072,0.372,0.108
		c0.584,0.167,1.246,0.355,1.897,0.775l2.055,1.326l-4.539,0.937l0.141,1.049l4.419,3.961l3.311-1.791l1.206,1.028l11.342-6.372
		l1.471,1.471c0.588-0.446,1.211-0.839,1.866-1.176l-3.63-9.95l-2.736,1.667l-7.229-6.872c-1.782-1.621-3.344-3.485-4.646-5.544
		c-3.935,2.854-7.649,5.587-10.9,9.024l-2.491,2.901l-1.548-1.266c0.794-1.021,1.66-2.029,2.572-2.995l-6.54-5.887
		c-0.335,0.857-0.658,1.725-0.963,2.594C38.471,101.352,38.626,104.491,38.759,107.627z M64.184,114.912v0.628h-2v-0.628H64.184z
		 M54.38,106.868l0.279,0.251l-1.338,1.486l-0.279-0.251L54.38,106.868z"/>
	<rect x="62.184" y="114.912" style="fill:#E6C400;" width="2" height="0.628"/>
	
		<rect x="53.663" y="106.736" transform="matrix(0.7432 0.669 -0.669 0.7432 85.9067 -8.3641)" style="fill:#E6C400;" width="0.375" height="2"/>
	<path style="fill:#E6C400;" d="M80.352,63.523l-7.01,4.96c-5.28,3.664-10.472,7.611-15.499,11.438l2.779,1.356l9.411,0.811
		l2.105,1.083l1.656-5.613l1.13-1.413l1.562,1.25l-0.885,1.105l-1.691,5.737l0.007,0.012l2.2,3.575l2.966-2.364l6.567,1.974
		l1.471-5.87l1.077,0.371c2.605-2.215,5.337-3.833,8.221-5.541c0.525-0.311,1.06-0.637,1.59-0.955l-3.584-2.903l0.197-0.988
		c-3.514-1.84-6.744-3.096-9.853-3.833l-0.343-0.082l-0.216-0.278C83.091,65.916,81.796,64.629,80.352,63.523z M77.24,76.77
		l-1.369-1.458l0.454-0.431l1.386,1.441L77.24,76.77z M83.029,78.021l-0.684,0.729l0,0l0,0l-0.684,0.729l-3.94-3.698l0.531-0.566
		l-1.119-1.125l0.142-0.142l1.117,1.117l0.013-0.013l0,0l0,0l0.684-0.729L83.029,78.021z"/>
	<polygon style="fill:#E6C400;" points="76.325,74.88 75.871,75.312 77.24,76.77 77.711,76.322 	"/>
	<polygon style="fill:#E6C400;" points="78.404,75.052 78.404,75.052 78.392,75.066 77.275,73.949 77.133,74.091 78.252,75.216 
		77.72,75.782 81.66,79.479 82.345,78.75 82.345,78.75 83.029,78.021 79.089,74.324 	"/>
	<path style="fill:#E6C400;" d="M97.438,78.115c-2.964,1.755-5.764,3.413-8.36,5.703l-0.437,0.385l-0.11-0.038l-0.963,3.846
		l6.986,2.1c3.041-0.915,5.649-2.365,8.019-3.801c0.75-0.455,1.373-1.132,2.034-1.849c0.602-0.654,1.224-1.329,1.999-1.905
		c-1.924-0.994-3.828-2.803-5.534-4.424c-0.5-0.476-0.981-0.933-1.427-1.334C98.904,77.247,98.168,77.683,97.438,78.115z"/>
</g>
</svg>
