<?xml version="1.0" encoding="utf-8"?>
<!-- Generator: Adobe Illustrator 16.0.0, SVG Export Plug-In . SVG Version: 6.00 Build 0)  -->
<!DOCTYPE svg PUBLIC "-//W3C//DTD SVG 1.1//EN" "http://www.w3.org/Graphics/SVG/1.1/DTD/svg11.dtd">
<svg version="1.1" id="Capa_1" xmlns="http://www.w3.org/2000/svg" xmlns:xlink="http://www.w3.org/1999/xlink" x="0px" y="0px"
	 width="130px" height="115px" viewBox="0 0 130 115" enable-background="new 0 0 130 115" xml:space="preserve">
<path fill-rule="evenodd" clip-rule="evenodd" fill="#E31F20" d="M181.94,359.074c-0.085,0.159-0.157,0.305-0.247,0.48
	c0.113,0.105,0.219,0.207,0.331,0.306c1.082,0.929,1.853,2.075,2.3,3.421c0.343,1.042,0.283,2.123,0.176,3.199
	c-0.109,1.116-0.632,2.073-1.17,3.023c-0.095,0.167-0.215,0.318-0.297,0.492c-0.359,0.758-1.148,1.049-1.904,0.693
	c-0.773-0.365-1.079-1.233-0.677-1.983c0.185-0.341,0.452-0.636,0.616-0.983c0.619-1.303,0.869-2.656,0.303-4.035
	c-0.189-0.46-0.54-0.852-0.913-1.248c-0.049,0.469-0.079,0.939-0.146,1.408c-0.23,1.583-0.666,3.077-1.64,4.402
	c-0.435,0.586-0.849,1.168-1.392,1.67c-0.691,0.639-1.549,0.486-1.92,0.141c-0.691-0.644-0.721-1.471-0.12-2.166
	c0.452-0.521,0.979-1.009,1.282-1.61c0.394-0.78,0.669-1.634,0.857-2.489c0.309-1.397,0.205-2.799-0.223-4.174
	c-0.273-0.877,0.082-1.652,0.42-2.43c0.09-0.215,0.198-0.42,0.311-0.65c-0.191-0.137-0.369-0.26-0.556-0.395
	c0.123-0.205,0.245-0.405,0.364-0.604c0.202,0.068,0.38,0.131,0.487,0.17c0.64-0.769,1.258-1.502,1.858-2.25
	c0.238-0.295,0.512-0.443,0.855-0.25c0.623,0.346,1.246,0.697,1.832,1.1c0.531,0.365,1.016,0.389,1.506-0.029
	c0.471-0.404,0.423-1.369-0.084-1.74c-0.217-0.164-0.416-0.35-0.638-0.535c1.024-0.008,2.175,0.875,1.806,2.162
	c-0.117,0.423-0.409,0.799-0.605,1.203c-0.088,0.176-0.193,0.367-0.199,0.557c-0.027,1.088,0.312,2.059,0.971,2.924
	c0.293,0.38,0.604,0.76,0.837,1.175c0.144,0.255,0.157,0.581,0.261,1.012c0.461,0.276,1.071,0.626,1.664,0.995
	c1.146,0.715,2.285,1.438,3.423,2.163c0.188,0.122,0.33,0.167,0.558,0.048c0.6-0.312,1.24-0.092,1.656,0.449
	c0.279,0.36,0.645,0.651,0.978,0.975c0.119,0.111,0.241,0.227,0.38,0.313c0.257,0.172,0.504,0.396,0.793,0.476
	c0.479,0.132,0.879,0.324,1.104,0.783c0.346,0.701,0.992,1.021,1.665,1.272c0.548,0.204,1.048,0.435,1.335,1.085
	c-0.181,0.096-0.377,0.271-0.596,0.301c-1.186,0.171-2.375,0.387-3.568,0.445c-3.176,0.156-6.353,0.1-9.522-0.209
	c-0.328-0.037-0.655-0.096-0.979-0.16c-0.446-0.09-0.467-0.154-0.265-0.541c0.392-0.762,1.052-1.215,1.849-1.41
	c0.539-0.135,0.895-0.431,1.146-0.869c0.312-0.537,0.692-0.902,1.343-1.051c0.397-0.091,0.74-0.459,1.086-0.728
	c0.184-0.139,0.327-0.335,0.539-0.555c-1.061-0.656-2.12-1.308-3.174-1.964c-0.676-0.42-1.348-0.852-2.022-1.273
	c-0.08-0.045-0.177-0.102-0.26-0.1c-0.567,0.025-0.876-0.345-1.177-0.734c-0.074-0.096-0.143-0.211-0.24-0.268
	C183.531,360.017,182.762,359.562,181.94,359.074 M182.384,358.417c0.315,0.181,0.603,0.345,0.913,0.521
	c-0.141-0.425-0.264-0.811-0.409-1.247C182.708,357.947,182.558,358.163,182.384,358.417"/>
<path fill-rule="evenodd" clip-rule="evenodd" fill="#E31F20" d="M187.465,353.314c-1.346,0.025-2.635-1.168-2.617-2.598
	c0.016-1.416,1.234-2.644,2.643-2.64c1.387,0.003,2.594,1.231,2.596,2.645C190.091,352.143,188.908,353.315,187.465,353.314"/>
<path fill-rule="evenodd" clip-rule="evenodd" fill="#E31F20" d="M180.361,350.982c1.027,0.053,1.921,0.4,2.725,1.014
	c0.279,0.22,0.577,0.423,0.869,0.627c0.433,0.306,0.59,0.924,0.332,1.317c-0.285,0.433-0.924,0.53-1.385,0.215
	c-0.435-0.296-0.855-0.608-1.299-0.885c-1.378-0.849-2.492-0.204-3.175,0.67c-0.359,0.462-0.626,1.001-0.946,1.499
	c-0.158,0.241-0.307,0.497-0.514,0.687c-0.31,0.278-0.677,0.224-0.998,0.011c-0.316-0.207-0.574-0.525-0.416-0.908
	c0.729-1.754,1.696-3.318,3.594-4.023C179.526,351.064,179.957,351.053,180.361,350.982"/>
<path fill-rule="evenodd" clip-rule="evenodd" fill="#E31F20" d="M175.715,354.224c-0.115,0.245-0.217,0.468-0.332,0.709
	c-0.188-0.12-0.367-0.235-0.545-0.345C175.049,353.957,175.139,353.916,175.715,354.224"/>
<path fill-rule="evenodd" clip-rule="evenodd" fill="#E31F20" d="M175.088,363.361c-0.016,0.304-0.027,0.578-0.041,0.887h-6.133
	v-0.885c0.224-0.009,0.443-0.022,0.703-0.033c0.207-0.933,0.42-1.865,0.617-2.801c0.361-1.736,0.72-3.471,1.066-5.207
	c0.055-0.272,0.148-0.367,0.434-0.36c0.846,0.012,0.871-0.009,1.045,0.814c0.375,1.773,0.717,3.554,1.076,5.331
	c0.119,0.59,0.271,1.18,0.377,1.771c0.066,0.352,0.203,0.553,0.593,0.466C174.887,363.33,174.953,363.352,175.088,363.361"/>
<path fill-rule="evenodd" clip-rule="evenodd" fill="#E31F20" d="M165.779,363.186c0.262,0.104,0.493,0.197,0.746,0.301
	c-0.082,0.229-0.154,0.432-0.234,0.643c2.074,1.383,4.136,2.758,6.244,4.164c-0.125,0.319-0.264,0.662-0.413,1.031
	c-1.022-0.193-2.02-0.385-3.017-0.561c-1.195-0.21-2.393-0.405-3.59-0.607c-0.057-0.008-0.115-0.012-0.173-0.027
	c-0.623-0.139-0.623-0.139-0.923,0.434c-0.201-0.091-0.403-0.182-0.66-0.293C164.434,366.573,165.099,364.905,165.779,363.186"/>
<g>
	<path fill="#92C14D" d="M95.115,46.741l-5.88-11.76h-1.291v-3.383H81.92v3.383h-0.866l-3.268-6.542H58.759v-2.859h-3.317v2.859
		h-2.331l-3.274,6.542h-1.16v-3.383h-6.025v3.383h-0.995l-5.874,11.76h-2.151v3.87h63.333v-3.87H95.115z M48.845,46.632h-6.122
		l-0.017-4.952c0.049-1.177,1.403-2.108,3.064-2.108c1.669,0,3.023,0.932,3.069,2.108h0.005V46.632z M72.51,44.962H66.7v-6.395
		c3.29,0.449,5.81,2.802,5.81,5.646V44.962z M64.223,44.962h-6.129v-0.749c0-2.652,2.79-5.09,6.129-5.616V44.962z M76.822,46.73
		h-2.533v-2.517c0-3.993-3.754-7.511-8.711-7.511c-4.967,0-9.27,3.519-9.27,7.511v2.517h-2.539v-3.143
		c0-5.006,5.164-9.072,11.532-9.072c6.359,0,11.521,4.066,11.521,9.072V46.73z M88.557,46.632h-6.13v-4.952
		c0.043-1.177,1.395-2.108,3.061-2.108c1.673,0,3.021,0.932,3.069,2.108V46.632z"/>
	<path fill="#92C14D" d="M35.435,95.345h59.571V53.088H35.435V95.345z M52.484,87.061l-7.857-0.006l-0.02-9.088
		c0.063-1.495,1.795-2.705,3.933-2.705c2.144,0,3.878,1.21,3.944,2.705V87.061z M52.484,71.606h-7.857l-0.02-9.091
		c0.063-1.498,1.795-2.696,3.933-2.696c2.144,0,3.878,1.198,3.944,2.696V71.606z M63.656,87.061l-7.861-0.006l-0.021-9.088
		c0.054-1.495,1.8-2.705,3.938-2.705c2.135,0,3.873,1.21,3.944,2.705V87.061z M63.656,71.606h-7.861l-0.021-9.091
		c0.054-1.498,1.8-2.696,3.938-2.696c2.135,0,3.873,1.198,3.944,2.696V71.606z M74.828,87.061l-7.866-0.006l-0.023-9.088
		c0.062-1.495,1.805-2.705,3.94-2.705c2.141,0,3.872,1.21,3.938,2.705h0.012V87.061z M74.828,71.606h-7.866l-0.023-9.091
		c0.062-1.498,1.805-2.696,3.94-2.696c2.141,0,3.872,1.198,3.938,2.696h0.012V71.606z M85.989,87.061l-7.855-0.006l-0.032-9.088
		c0.065-1.495,1.803-2.705,3.943-2.705c2.142,0,3.884,1.204,3.944,2.696V87.061z M85.989,71.606h-7.855l-0.032-9.091
		c0.065-1.498,1.803-2.696,3.943-2.696c2.142,0,3.878,1.198,3.94,2.696h0.004V71.606z"/>
	<path fill="#92C14D" d="M46.802,84.491l-0.026-5.883c0.011-0.237,0.692-0.782,1.76-0.782c1.081,0,1.762,0.543,1.77,0.842
		c0,0.009,0.012,5.829,0.012,5.829L46.802,84.491z"/>
	<path fill="#92C14D" d="M46.802,69.044l-0.026-5.891c0.011-0.229,0.692-0.769,1.76-0.769c1.081,0,1.762,0.534,1.77,0.83
		c0,0.008,0.012,5.829,0.012,5.829H46.802z"/>
	<path fill="#92C14D" d="M57.961,84.491l-0.021-5.883c0.02-0.237,0.699-0.782,1.768-0.782c1.078,0,1.753,0.545,1.771,0.842v5.829
		L57.961,84.491z"/>
	<path fill="#92C14D" d="M57.961,69.044l-0.021-5.891c0.02-0.229,0.695-0.769,1.768-0.769c1.078,0,1.753,0.539,1.771,0.83v5.829
		H57.961z"/>
	<path fill="#92C14D" d="M69.131,84.491l-0.012-5.883c0.006-0.239,0.684-0.782,1.76-0.782c1.073,0,1.749,0.545,1.759,0.842
		c0,0.014,0.012,5.829,0.012,5.829L69.131,84.491z"/>
	<path fill="#92C14D" d="M69.131,69.044l-0.012-5.891c0.006-0.234,0.684-0.769,1.76-0.769c1.073,0,1.749,0.539,1.759,0.83
		c0,0.014,0.012,5.829,0.012,5.829H69.131z"/>
	<path fill="#92C14D" d="M80.302,84.491l-0.025-5.883c0.01-0.237,0.695-0.782,1.769-0.782c1.079,0,1.76,0.543,1.771,0.834v5.831
		H80.302z"/>
	<path fill="#92C14D" d="M80.302,69.044l-0.025-5.891c0.01-0.229,0.695-0.769,1.769-0.769c1.067,0,1.754,0.534,1.762,0.83v5.829
		H80.302z"/>
</g>
</svg>
