<?xml version="1.0" encoding="utf-8"?>
<!-- Generator: Adobe Illustrator 16.0.0, SVG Export Plug-In . SVG Version: 6.00 Build 0)  -->
<!DOCTYPE svg PUBLIC "-//W3C//DTD SVG 1.1//EN" "http://www.w3.org/Graphics/SVG/1.1/DTD/svg11.dtd">
<svg version="1.1" id="Capa_1" xmlns="http://www.w3.org/2000/svg" xmlns:xlink="http://www.w3.org/1999/xlink" x="0px" y="0px"
	 width="130px" height="115px" viewBox="0 0 130 115" enable-background="new 0 0 130 115" xml:space="preserve">
<path fill="#2B3180" d="M62.472,28.485c-3.201,0-3.201-3.204-8.002-3.204c-2.412,0-4.714,0.709-6.418,1.396v-1.396
	c0-0.885-0.703-1.594-1.588-1.594c-0.888,0-1.588,0.709-1.588,1.594V52.51h3.201V41.297c0,0,1.594-3.212,6.41-3.212
	c3.209,0,3.209,3.212,8.006,3.212c4.803,0,6.413-3.212,6.413-3.212V25.282C68.893,25.282,67.296,28.485,62.472,28.485
	 M65.681,35.486c0,0,0,1.591-3.209,1.591c-3.201,0-4.798-3.207-8.002-3.207c-3.206,0-6.418,2.407-6.418,2.407v-5.336
	c0,0,3.212-1.997,6.418-1.997c3.204,0,4.801,3.206,8.002,3.206c1.599,0,3.209-0.797,3.209-0.797V35.486z"/>
<path fill="#2B3180" d="M105.484,71.312H81.313v-16.12H32.957v42.779h32.234V79.346h8.059v18.625h32.234V71.312z M49.074,87.401
	h-8.059v-8.056h8.059V87.401z M49.074,71.312h-8.059V63.25h8.059V71.312z M73.25,71.312h-8.064V63.25h8.064V71.312z M97.426,87.401
	h-8.064v-8.056h8.064V87.401z"/>
</svg>
