<?xml version="1.0" encoding="utf-8"?>
<!-- Generator: Adobe Illustrator 16.0.0, SVG Export Plug-In . SVG Version: 6.00 Build 0)  -->
<!DOCTYPE svg PUBLIC "-//W3C//DTD SVG 1.1//EN" "http://www.w3.org/Graphics/SVG/1.1/DTD/svg11.dtd">
<svg version="1.1" id="Capa_1" xmlns="http://www.w3.org/2000/svg" xmlns:xlink="http://www.w3.org/1999/xlink" x="0px" y="0px"
	 width="130px" height="115px" viewBox="0 0 130 115" enable-background="new 0 0 130 115" xml:space="preserve">
<g>
	<path fill="#036633" d="M92.199,92.683c0.054,0.651,0.022,1.309,0.022,2.049h3.656c0.045-0.902,0.077-1.806,0.136-2.882
		c2.927,0.305,5.494,0.399,8.221,1.484c0.014,0.156,0.031,0.31,0.046,0.464c-0.679,0.226-1.347,0.588-2.041,0.669
		c-4.203,0.469-8.406,1.127-12.622,1.27c-10.901,0.383-21.811,0.715-32.715,0.699c-11.066-0.025-22.13-0.222-33.135-1.566
		c-1.217-0.148-2.411-0.43-3.624-0.706c-0.274-0.059-0.53-0.26-1.026-0.516c1.374-1.092,2.835-1.085,4.184-1.267
		c2.484-0.34,4.963-0.536,7.459-0.733c0.735-0.052,1.061-0.346,1.337-0.99c2.394-5.576,3.574-11.409,3.844-17.442
		c0.219-5.359-0.143-10.681-1.17-15.948c-0.037-0.224-0.09-0.43-0.123-0.574c-1.316,0.461-2.561,1.1-3.873,1.33
		c-6.253,1.114-11.336-4.881-9.281-10.881c0.222-0.672,0.179-1.082-0.249-1.645c-2.665-3.405-2.285-8.23,0.855-11.187
		c0.496-0.455,0.704-0.885,0.692-1.568c-0.117-5.396,3.907-9.144,9.273-8.712c0.396,0.022,0.955-0.224,1.232-0.536
		c3.446-3.916,8.588-4.215,12.479-0.751c0.278,0.245,0.91,0.369,1.249,0.222c6.335-2.565,12.443,2.022,11.795,8.875
		c-0.029,0.387,0.222,0.955,0.535,1.197c4.729,3.658,4.712,10.065-0.079,13.691c-0.442,0.335-0.776,0.575-0.662,1.283
		c0.483,3.43-0.717,6.249-3.562,8.197c-2.797,1.93-5.814,1.955-8.832,0.382c-0.19-0.106-0.401-0.19-0.811-0.382
		c-0.371,2.18-0.801,4.23-1.044,6.307c-1.118,9.31-0.177,18.395,2.818,27.282c0.31,0.915,0.749,1.153,1.651,1.092
		c1.331-0.088,2.086-0.02,3.555-0.02c0,1.289,0.038,2.775,0.038,4.126c1.108,0,3.011-0.007,4.131-0.007
		c0-1.039-0.077-2.201-0.077-2.201s0.301-0.009,0.1-0.043c0.258,0.061,0.111-0.061,0.111-0.061s0.115-0.251,0.147,0.061
		c1.018,0,2.737,0.086,3.778,0.086c0.04-0.563,0.058-1.385,0.122-2.185c9.33,0.193,17.888,0.339,27.198,0.537
		c0.113,0.539,0.05,1.394,0.14,1.838c0.928,0,3.022,0.043,3.729,0.043c0.066-0.407-0.022-1.684-0.022-1.684s0.137,0.025,0.366-0.043
		"/>
	<path fill="#036633" d="M97.186,83.877c-0.688,0.065-1.218-0.007-1.838,0.057v7.855c0,0.46,0.004,0.927,0.004,1.384
		c0.011,1.546,0.064,1.166-1.402,1.213c-0.945,0.036-1.352,0.081-1.327-0.896c0.056-3.141,0.011-6.299,0.011-9.536h-1.389
		c0,2.389,0.024,4.762-0.006,7.135c-0.019,0.424-0.107,1.184-0.279,1.22c-0.696,0.125-1.435,0.095-2.149-0.012
		c-0.127-0.031-0.23-0.669-0.23-1.029c-0.016-2.418-0.009-4.827-0.009-7.325H59.929v8.332c-0.253,0.075-0.357,0.134-0.462,0.143
		c-2.233,0.225-2.264,0.184-2.233-2.018c0.016-2.143,0-4.289,0-6.486h-1.269c0,2.292-0.005,4.54,0,6.803
		c0,0.917-0.036,1.84,0.04,2.758c0.096,1.215-0.602,1.235-1.516,1.258c-0.923,0.024-1.289-0.212-1.267-1.215
		c0.066-2.801,0.023-5.613,0.023-8.422c0-0.37-0.031-0.741-0.045-1.182c-0.444-0.043-0.589-0.024-1.261-0.043
		c0-0.821,0.079-1.276,0.211-1.88c1.416-2.053,3.023-4.086,3.023-4.086s2.239,0.024,4.189,0.024c11.461,0,22.912,0.02,34.362-0.024
		h1.065c0,0,0.494,0.646,0.675,1.099c0.462,1.19,1.098,2.335,1.598,3.512C97.207,82.846,97.145,83.37,97.186,83.877"/>
	<rect x="55.169" y="71.459" fill="#036633" width="39.615" height="1.989"/>
	<path fill="#036633" d="M94.773,74.684c0,0.881,0.041,1.267,0.041,2.201c-0.405,0.024-0.806,0.076-1.211,0.076
		c-12.391,0-24.783-0.117-37.186-0.067c-0.525,0-1.208,0.02-1.208,0.02s-0.032-0.391-0.039-0.916c-0.009-0.59,0-1.389,0-1.389h1.211
		c12.402,0.047,24.805,0.016,37.209,0.016C93.969,74.631,94.344,74.667,94.773,74.684"/>
	<path fill="#036633" d="M55.296,67.859h39.467c0,0.862-0.017,1.428-0.017,2.378h-1.271H57.042h-1.778
		C55.264,70.237,55.223,69.258,55.296,67.859"/>
</g>
</svg>
