<?xml version="1.0" encoding="utf-8"?>
<!-- Generator: Adobe Illustrator 16.0.0, SVG Export Plug-In . SVG Version: 6.00 Build 0)  -->
<!DOCTYPE svg PUBLIC "-//W3C//DTD SVG 1.1//EN" "http://www.w3.org/Graphics/SVG/1.1/DTD/svg11.dtd">
<svg version="1.1" id="Capa_1" xmlns="http://www.w3.org/2000/svg" xmlns:xlink="http://www.w3.org/1999/xlink" x="0px" y="0px"
	 width="130px" height="115px" viewBox="0 0 130 115" enable-background="new 0 0 130 115" xml:space="preserve">
<path fill="#698AC6" d="M27.935,98.542V41.957c0-2.139,1.646-3.773,3.771-3.773h15.102V23.078h37.731v15.105h15.079
	c2.129,0,3.774,1.635,3.774,3.773v56.585h-30.19v-18.85H58.103v18.85H27.935 M54.342,30.639v22.64h7.541v-7.544h7.532v7.544h7.545
	v-22.64h-7.545v7.545h-7.532v-7.545H54.342 M35.466,91.007h15.102V79.692H35.466V91.007z M35.466,72.132h15.102V60.813H35.466
	V72.132z M80.736,91.007h15.098V79.692H80.736V91.007z M80.736,72.132h15.098V60.813H80.736V72.132z M58.103,72.132h15.099V60.813
	H58.103V72.132z"/>
</svg>
