<?xml version="1.0" encoding="utf-8"?>
<!-- Generator: Adobe Illustrator 16.0.0, SVG Export Plug-In . SVG Version: 6.00 Build 0)  -->
<!DOCTYPE svg PUBLIC "-//W3C//DTD SVG 1.1//EN" "http://www.w3.org/Graphics/SVG/1.1/DTD/svg11.dtd">
<svg version="1.1" id="Capa_1" xmlns="http://www.w3.org/2000/svg" xmlns:xlink="http://www.w3.org/1999/xlink" x="0px" y="0px"
	 width="130px" height="115px" viewBox="0 0 130 115" enable-background="new 0 0 130 115" xml:space="preserve">
<g>
	<path fill="#E3117E" d="M107.207,28.023c-3.685-1.069-12.003-2.801-27.513-2.801c-15.504,0-23.836,1.731-27.514,2.801
		c-1.398,0.396-2.343,1.735-2.343,3.242v57.586c0,0.805,0.634,1.457,1.396,1.457h2.773v7.182c0,0.839,0.675,1.51,1.516,1.51h6.139
		c0.835,0,1.515-0.671,1.515-1.51v-7.182h33.062v7.182c0,0.839,0.679,1.51,1.518,1.51h6.133c0.841,0,1.514-0.671,1.514-1.51v-7.182
		h2.78c0.788,0,1.398-0.652,1.398-1.457V31.265C109.56,29.758,108.613,28.419,107.207,28.023 M61.554,32.461
		c0-0.788,0.651-1.446,1.437-1.446h33.548c0.786,0,1.438,0.658,1.438,1.446v3.501c0,0.791-0.651,1.443-1.438,1.443H62.991
		c-0.786,0-1.437-0.652-1.437-1.443V32.461z M65.361,79.553c0,0.828-0.671,1.506-1.513,1.506h-7.764
		c-0.833,0-1.504-0.678-1.504-1.506v-3.144c0-0.836,0.671-1.513,1.504-1.513h7.764c0.842,0,1.513,0.677,1.513,1.513V79.553z
		 M104.817,79.553c0,0.828-0.675,1.506-1.516,1.506H95.54c-0.833,0-1.514-0.678-1.514-1.506v-3.144c0-0.836,0.681-1.513,1.514-1.513
		h7.762c0.841,0,1.516,0.677,1.516,1.513V79.553z M104.817,65.217c0,0.791-0.675,1.443-1.516,1.443H56.227
		c-0.842,0-1.514-0.652-1.514-1.443V42.053c0-0.782,0.671-1.444,1.514-1.444h47.075c0.841,0,1.516,0.662,1.516,1.444V65.217z"/>
	<path fill="#E3117E" d="M100.483,63.903c-0.113,0-0.228-0.02-0.36-0.063c-0.028,0-1.877-0.675-4.293-0.675
		c-2.411,0-4.267,0.675-4.292,0.675c-0.513,0.202-1.102-0.073-1.274-0.593c-0.206-0.513,0.062-1.075,0.582-1.285
		c0.091-0.021,2.213-0.807,4.984-0.807c2.78,0,4.9,0.785,4.992,0.807c0.52,0.21,0.785,0.772,0.58,1.285
		C101.272,63.656,100.892,63.903,100.483,63.903"/>
	<rect x="16.02" y="90.697" fill="#E3117E" width="25.311" height="8.303"/>
	<rect x="17.786" y="38.223" fill="#E3117E" width="3.634" height="52.45"/>
	<path fill="#E3117E" d="M16.178,41.271c-0.722,0-1.424-0.431-1.687-1.156c-0.37-0.931,0.086-1.987,1.036-2.346
		c7.135-2.801,14.693-4.226,22.416-4.226c1.152,0,2.317,0.026,3.469,0.092c0.991,0.047,1.754,0.908,1.722,1.921
		c-0.053,0.991-0.905,1.754-1.924,1.716c-1.083-0.067-2.19-0.088-3.267-0.088c-7.293,0-14.382,1.329-21.112,3.972
		C16.628,41.246,16.4,41.271,16.178,41.271"/>
</g>
</svg>
