<?xml version="1.0" encoding="utf-8"?>
<!-- Generator: Adobe Illustrator 16.0.0, SVG Export Plug-In . SVG Version: 6.00 Build 0)  -->
<!DOCTYPE svg PUBLIC "-//W3C//DTD SVG 1.1//EN" "http://www.w3.org/Graphics/SVG/1.1/DTD/svg11.dtd">
<svg version="1.1" id="Capa_1" xmlns="http://www.w3.org/2000/svg" xmlns:xlink="http://www.w3.org/1999/xlink" x="0px" y="0px"
	 width="130px" height="115px" viewBox="0 0 130 115" enable-background="new 0 0 130 115" xml:space="preserve">
<path fill="#956336" d="M55.325,96.528H32.114c-1.018-0.498-1.259-1.378-1.259-2.427c0.011-11.226,0.011-22.446-0.011-33.665
	c0-0.476,0.144-0.793,0.506-1.097c2.535-2.096,5.057-4.212,7.579-6.321c3.357-2.826,6.715-5.655,10.072-8.475
	c4.019-3.369,8.035-6.744,12.055-10.113c0.962-0.805,1.934-1.599,2.9-2.405c0.15,0.124,0.247,0.194,0.338,0.275
	c2.454,2.194,4.903,4.394,7.356,6.582c3.424,3.039,6.853,6.073,10.276,9.119c4.165,3.705,8.314,7.445,12.507,11.124
	c0.521,0.463,0.719,0.904,0.719,1.582c-0.021,10.882-0.021,21.78-0.021,32.663c0,0.449-0.038,0.903-0.121,1.351
	c-0.168,0.927-0.774,1.438-1.671,1.65c-0.201,0.049-0.407,0.097-0.612,0.156H70.804c-0.053-0.254-0.149-0.509-0.149-0.747
	c0-5.796,0.01-11.592,0.024-17.398c0.008-2.319-1.016-3.445-3.358-3.483c-3.053-0.032-6.113-0.026-9.158,0
	c-1.868,0.022-2.799,1.005-2.811,2.871C55.335,84.027,55.335,90.275,55.325,96.528"/>
<path fill-rule="evenodd" clip-rule="evenodd" fill="#966436" d="M64.349,17c1.075,1.018,2.124,2.047,3.207,3.047
	c2.442,2.229,4.907,4.444,7.361,6.66c3.995,3.612,7.995,7.212,11.985,10.828c3.55,3.217,7.077,6.457,10.629,9.669
	c3.595,3.266,7.205,6.522,10.808,9.783v0.136c-0.326,0.336-0.634,0.709-0.986,1.002c-1.982,1.604-4.082,1.275-6.21,0.362
	c-2.088-0.876-3.648-2.476-5.3-3.952c-2.79-2.489-5.564-5.002-8.343-7.509c-2.546-2.278-5.07-4.559-7.61-6.836
	c-4.267-3.819-8.525-7.638-12.783-11.448c-0.948-0.834-1.875-1.685-2.872-2.576c-1.246,1.053-2.47,2.08-3.683,3.109
	c-3.938,3.32-7.876,6.646-11.802,9.961c-3.262,2.763-6.49,5.542-9.746,8.298c-3.255,2.758-6.508,5.522-9.801,8.24
	c-1.32,1.077-2.673,2.167-4.139,3.025c-2.034,1.183-4.525,0.982-6.261-1.397c-0.035-0.055-0.101-0.087-0.158-0.136v-0.144
	c1.568-1.349,3.134-2.701,4.7-4.07c3.283-2.877,6.549-5.761,9.82-8.643c3.597-3.18,7.18-6.349,10.774-9.518
	c3.218-2.839,6.452-5.661,9.669-8.505c3.538-3.123,7.063-6.251,10.601-9.387H64.349z"/>
<path fill-rule="evenodd" clip-rule="evenodd" fill="#966436" d="M84.309,21.002v17.415c-0.199-0.119-0.338-0.184-0.445-0.271
	c-2.506-2.118-5.019-4.225-7.511-6.362c-0.243-0.219-0.482-0.604-0.492-0.913c-0.044-3.125-0.036-6.251-0.044-9.379
	c0-0.149,0.038-0.311,0.054-0.49H84.309z"/>
</svg>
