<?xml version="1.0" encoding="utf-8"?>
<!-- Generator: Adobe Illustrator 16.0.0, SVG Export Plug-In . SVG Version: 6.00 Build 0)  -->
<!DOCTYPE svg PUBLIC "-//W3C//DTD SVG 1.1//EN" "http://www.w3.org/Graphics/SVG/1.1/DTD/svg11.dtd">
<svg version="1.1" id="Capa_1" xmlns="http://www.w3.org/2000/svg" xmlns:xlink="http://www.w3.org/1999/xlink" x="0px" y="0px"
	 width="130px" height="115px" viewBox="0 0 130 115" enable-background="new 0 0 130 115" xml:space="preserve">
<g>
	<path fill-rule="evenodd" clip-rule="evenodd" fill="#EF830C" d="M86.604,59.62c-3.073,0.207-6.142,0.483-9.205,0.543
		c-0.449,0.012-1.145-0.981-1.301-1.627c-0.246-0.926-0.201-1.971-0.112-2.957c0.175-2.062-0.825-2.859-2.752-2.769
		c-3.609,0.173-7.212,0.556-10.81,0.491c-6.344-0.127-12.688-0.51-19.157-0.798v-9.477c3.369,0,6.669,0.006,9.989-0.006
		c2.717-0.004,3.186-0.49,3.202-3.237c0.026-1.9,0.011-3.809,0.011-5.832c0.82-0.118,1.499-0.218,2.479-0.35
		c0-1.187,0.216-2.486-0.062-3.659c-0.305-1.328-1.224-2.358-2.849-2.025c-2.146,0.448-4.249,1.131-6.42,1.415
		c-2.551,0.331-4.428-1.748-3.801-4.031c0.473-1.733,1.744-2.653,3.504-2.441c1.673,0.212,3.323,0.676,4.94,1.162
		c1.553,0.461,2.926,0.821,4.191-0.705c0.485-0.578,1.456-0.767,2.2-1.133h2.122c0.634,0.3,1.432,0.436,1.855,0.921
		c1.471,1.664,3.104,1.152,4.841,0.658c1.352-0.385,2.739-0.697,4.138-0.903c1.502-0.212,3.02,0.129,3.552,1.651
		c0.348,1.003,0.444,2.671-0.142,3.291c-0.829,0.878-2.398,1.473-3.632,1.432c-1.646-0.033-3.315-0.675-4.895-1.279
		c-1.61-0.613-3.042-0.152-3.63,1.146c-0.599,1.293-0.403,2.945-0.545,4.407c0.904,0.199,1.501,0.341,2.217,0.485
		c0,2.073-0.022,4.051,0.01,6.025c0.046,2.351,0.706,2.995,3.079,3.003c3.903,0.016,7.79,0.065,11.693-0.021
		c2.413-0.052,4.249,0.72,5.286,3.002V59.62z"/>
	<path fill-rule="evenodd" clip-rule="evenodd" fill="#EF830C" d="M81.568,71.669c1.467,2.575,2.943,4.751,4.006,7.11
		c1.461,3.232-0.707,6.373-4.098,6.239c-2.738-0.099-4.86-2.663-3.912-5.249C78.578,77.024,80.149,74.488,81.568,71.669"/>
</g>
</svg>
