<?xml version="1.0" encoding="utf-8"?>
<!-- Generator: Adobe Illustrator 16.0.0, SVG Export Plug-In . SVG Version: 6.00 Build 0)  -->
<!DOCTYPE svg PUBLIC "-//W3C//DTD SVG 1.1//EN" "http://www.w3.org/Graphics/SVG/1.1/DTD/svg11.dtd">
<svg version="1.1" id="Capa_1" xmlns="http://www.w3.org/2000/svg" xmlns:xlink="http://www.w3.org/1999/xlink" x="0px" y="0px"
	 width="130px" height="115px" viewBox="0 0 130 115" enable-background="new 0 0 130 115" xml:space="preserve">
<path fill-rule="evenodd" clip-rule="evenodd" fill="#E31F20" d="M63.138,60.383c-0.266,0.497-0.492,0.951-0.771,1.501
	c0.354,0.33,0.683,0.647,1.034,0.955c3.381,2.903,5.788,6.485,7.186,10.689c1.072,3.256,0.885,6.636,0.55,9.998
	c-0.341,3.487-1.975,6.478-3.655,9.447c-0.296,0.521-0.672,0.995-0.928,1.538c-1.124,2.368-3.589,3.278-5.951,2.167
	c-2.417-1.142-3.372-3.854-2.115-6.198c0.577-1.064,1.414-1.986,1.926-3.072c1.934-4.072,2.715-8.301,0.946-12.609
	c-0.592-1.438-1.688-2.661-2.854-3.9c-0.152,1.464-0.247,2.936-0.454,4.4c-0.721,4.947-2.082,9.616-5.124,13.757
	c-1.357,1.831-2.652,3.649-4.348,5.218c-2.162,1.996-4.841,1.521-6,0.44c-2.16-2.011-2.252-4.597-0.376-6.769
	c1.413-1.63,3.062-3.152,4.008-5.033c1.23-2.438,2.09-5.105,2.679-7.777c0.965-4.367,0.641-8.746-0.696-13.043
	c-0.855-2.74,0.256-5.164,1.312-7.593c0.281-0.671,0.62-1.312,0.971-2.033c-0.599-0.427-1.153-0.811-1.736-1.232
	c0.384-0.64,0.765-1.266,1.137-1.885c0.632,0.213,1.188,0.409,1.524,0.531c1.999-2.402,3.93-4.693,5.808-7.031
	c0.744-0.922,1.598-1.386,2.673-0.782c1.947,1.08,3.894,2.179,5.725,3.437c1.66,1.141,3.174,1.214,4.705-0.091
	c1.472-1.263,1.322-4.279-0.262-5.438c-0.678-0.513-1.301-1.093-1.993-1.673c3.201-0.024,6.797,2.735,5.643,6.756
	c-0.366,1.322-1.278,2.497-1.893,3.761c-0.274,0.549-0.604,1.146-0.622,1.738c-0.086,3.4,0.977,6.434,3.033,9.138
	c0.915,1.187,1.889,2.373,2.616,3.671c0.448,0.796,0.49,1.815,0.814,3.161c1.44,0.863,3.348,1.955,5.2,3.109
	c3.582,2.234,7.14,4.495,10.694,6.759c0.59,0.382,1.032,0.522,1.744,0.15c1.874-0.977,3.875-0.286,5.176,1.403
	c0.873,1.126,2.014,2.035,3.054,3.045c0.372,0.35,0.755,0.708,1.187,0.98c0.803,0.537,1.574,1.236,2.479,1.486
	c1.497,0.412,2.745,1.014,3.448,2.447c1.08,2.191,3.1,3.192,5.202,3.977c1.713,0.638,3.275,1.357,4.172,3.39
	c-0.564,0.3-1.178,0.849-1.862,0.94c-3.703,0.534-7.421,1.208-11.15,1.392c-9.924,0.488-19.852,0.312-29.756-0.653
	c-1.026-0.115-2.048-0.299-3.062-0.501c-1.395-0.279-1.458-0.481-0.826-1.69c1.224-2.38,3.286-3.795,5.776-4.405
	c1.684-0.422,2.795-1.346,3.58-2.716c0.974-1.679,2.164-2.82,4.195-3.285c1.243-0.283,2.313-1.434,3.394-2.273
	c0.574-0.433,1.021-1.046,1.686-1.732c-3.314-2.051-6.626-4.086-9.919-6.138c-2.111-1.312-4.211-2.661-6.32-3.979
	c-0.25-0.141-0.552-0.317-0.811-0.312c-1.773,0.079-2.737-1.077-3.678-2.295c-0.232-0.299-0.445-0.659-0.75-0.836
	C68.108,63.328,65.704,61.908,63.138,60.383 M64.522,58.328c0.986,0.564,1.884,1.078,2.854,1.627
	c-0.438-1.327-0.823-2.532-1.278-3.896C65.536,56.86,65.066,57.536,64.522,58.328"/>
<path fill-rule="evenodd" clip-rule="evenodd" fill="#E31F20" d="M80.4,42.384c-4.206,0.079-8.233-3.65-8.179-8.118
	c0.05-4.424,3.858-8.26,8.258-8.248c4.334,0.009,8.106,3.848,8.111,8.264C88.606,38.722,84.911,42.388,80.4,42.384"/>
<path fill-rule="evenodd" clip-rule="evenodd" fill="#E31F20" d="M58.203,35.097c3.21,0.165,6.003,1.251,8.515,3.168
	c0.873,0.686,1.804,1.321,2.716,1.959c1.352,0.955,1.842,2.886,1.037,4.116c-0.892,1.352-2.887,1.658-4.327,0.671
	c-1.358-0.924-2.673-1.901-4.059-2.764c-4.306-2.652-7.788-0.638-9.921,2.092c-1.123,1.445-1.956,3.128-2.958,4.685
	c-0.493,0.753-0.958,1.554-1.604,2.146c-0.967,0.869-2.114,0.699-3.119,0.034c-0.989-0.648-1.793-1.642-1.3-2.838
	c2.277-5.481,5.301-10.37,11.23-12.573C55.594,35.353,56.939,35.316,58.203,35.097"/>
<path fill-rule="evenodd" clip-rule="evenodd" fill="#E31F20" d="M43.684,45.225c-0.36,0.766-0.678,1.462-1.039,2.216
	c-0.588-0.375-1.146-0.735-1.702-1.078C41.602,44.392,41.883,44.264,43.684,45.225"/>
<path fill-rule="evenodd" clip-rule="evenodd" fill="#E31F20" d="M41.724,73.779c-0.048,0.949-0.084,1.807-0.127,2.771H22.432
	v-2.765c0.699-0.027,1.385-0.07,2.197-0.104c0.646-2.914,1.313-5.829,1.929-8.752c1.129-5.427,2.25-10.846,3.332-16.271
	c0.172-0.852,0.463-1.147,1.355-1.127c2.643,0.038,2.722-0.027,3.265,2.545c1.172,5.542,2.24,11.105,3.363,16.66
	c0.373,1.844,0.849,3.686,1.178,5.535c0.208,1.099,0.635,1.727,1.853,1.456C41.095,73.682,41.304,73.748,41.724,73.779"/>
<path fill-rule="evenodd" clip-rule="evenodd" fill="#E31F20" d="M12.636,73.229c0.817,0.326,1.541,0.616,2.331,0.94
	c-0.255,0.713-0.481,1.349-0.731,2.008c6.482,4.32,12.923,8.617,19.512,13.012c-0.391,0.998-0.824,2.069-1.291,3.224
	c-3.195-0.605-6.31-1.203-9.427-1.752c-3.734-0.657-7.476-1.268-11.217-1.898c-0.177-0.024-0.36-0.036-0.542-0.086
	c-1.947-0.434-1.947-0.434-2.883,1.356c-0.627-0.285-1.26-0.569-2.062-0.917C8.431,83.816,10.509,78.604,12.636,73.229"/>
</svg>
