<?xml version="1.0" encoding="iso-8859-1"?>
<!-- Generator: Adobe Illustrator 18.0.0, SVG Export Plug-In . SVG Version: 6.00 Build 0)  -->
<!DOCTYPE svg PUBLIC "-//W3C//DTD SVG 1.1//EN" "http://www.w3.org/Graphics/SVG/1.1/DTD/svg11.dtd">
<svg version="1.1" id="Layer_1" xmlns="http://www.w3.org/2000/svg" xmlns:xlink="http://www.w3.org/1999/xlink" x="0px" y="0px"
	 viewBox="0 0 191 191" style="enable-background:new 0 0 191 191;" xml:space="preserve">
<g>
	<path style="fill:#E6C400;" d="M95.901,123.268c-13.571,0-24.612-11.041-24.612-24.612c0-3.718,0.833-7.244,2.316-10.408
		L34.476,65.944c-5.218,9.759-8.187,20.893-8.187,32.712c0,38.385,31.228,69.612,69.612,69.612c18.474,0,35.278-7.248,47.753-19.031
		l-31.833-31.833C107.525,121.056,101.968,123.268,95.901,123.268z"/>
	<path style="fill:#CCAF01;" d="M95.507,73.904c5.058,0,9.762,1.549,13.665,4.2l27.939-35.054
		c-11.585-8.786-25.997-14.007-41.604-14.007c-24.974,0-46.895,13.356-59.051,33.323L75.33,84.603
		C79.739,78.149,87.137,73.904,95.507,73.904z"/>
	<path style="fill:#A99200;" d="M120.513,98.655c0,6.067-2.211,11.625-5.864,15.92l31.833,31.833
		c11.784-12.475,19.031-29.278,19.031-47.753c0-21.239-9.572-40.275-24.616-53.054l-28.123,35.16
		C117.533,85.252,120.513,91.611,120.513,98.655z"/>
</g>
</svg>
