<?xml version="1.0" encoding="iso-8859-1"?>
<!-- Generator: Adobe Illustrator 18.0.0, SVG Export Plug-In . SVG Version: 6.00 Build 0)  -->
<!DOCTYPE svg PUBLIC "-//W3C//DTD SVG 1.1//EN" "http://www.w3.org/Graphics/SVG/1.1/DTD/svg11.dtd">
<svg version="1.1" id="Layer_1" xmlns="http://www.w3.org/2000/svg" xmlns:xlink="http://www.w3.org/1999/xlink" x="0px" y="0px"
	 viewBox="0 0 83.4 78.99" enable-background="new 0 0 83.4 78.99" xml:space="preserve">
<path fill="#848689" d="M71.137,42.131v12.486h-5.018c-0.079,2.1-0.817,3.851-2.217,5.251c-1.4,1.4-3.151,2.1-5.251,2.1
	c-2.1,0-3.851-0.7-5.251-2.1c-1.4-1.4-2.14-3.151-2.217-5.251H36.246c-0.079,2.1-0.817,3.851-2.217,5.251s-3.151,2.1-5.251,2.1
	s-3.851-0.7-5.251-2.1s-2.14-3.151-2.217-5.251h-5.018V27.194c0.077-1.4,0.583-2.567,1.517-3.501c0.934-0.934,2.1-1.438,3.501-1.517
	H56.2v10.036h7.468L71.137,42.131z M31.461,57.185c0.7-0.7,1.05-1.575,1.05-2.626s-0.35-1.925-1.05-2.626
	c-0.7-0.7-1.596-1.05-2.684-1.05c-1.09,0-1.984,0.35-2.684,1.05c-0.7,0.7-1.05,1.575-1.05,2.626s0.35,1.925,1.05,2.626
	c0.7,0.7,1.594,1.092,2.684,1.167C29.865,58.277,30.761,57.885,31.461,57.185z M61.335,57.185c0.7-0.7,1.05-1.575,1.05-2.626
	s-0.35-1.925-1.05-2.626s-1.596-1.05-2.684-1.05c-1.09,0-1.984,0.35-2.684,1.05s-1.05,1.575-1.05,2.626s0.35,1.925,1.05,2.626
	s1.594,1.092,2.684,1.167C59.739,58.277,60.635,57.885,61.335,57.185z M56.2,35.946v6.185h11.086l-4.901-6.185H56.2z"/>
</svg>
